<svg width="735" height="494" viewBox="0 0 735 494" fill="none" xmlns="http://www.w3.org/2000/svg">
<path d="M550.037 482.447C475.56 492.075 124.803 502.459 86.0001 475.5C47.1969 448.541 27.5705 375.75 29 166C16 153.268 0.500006 131.5 0.5 97C0.49999 39.7353 41.5 10.0309 138.848 2.31357C231.223 -5.00947 677.086 17.7189 677.086 17.7189C721.522 19.0027 754.909 115.532 717.141 151.232C732.787 211.57 730.909 317.21 717.141 361.5C703.372 405.79 624.514 472.819 550.037 482.447Z" fill="#D89256"/>
<path d="M274 1.88741C252.539 1.45387 238.539 0.926976 220 0.987173C197.427 8.13229 181.894 17.2352 172.645 38.2593C156.962 73.9064 180.155 65.8606 188.917 45.3201C198.186 23.5916 216.699 11.6141 274 1.88741Z" fill="#EBF5B3"/>
<path d="M490 9.17024C510.529 10.2367 530.316 10.6346 548.772 11.6852L547.879 11.7568C445.238 19.973 408.094 22.8687 395.772 51.7537C387.01 72.2942 363.817 80.34 379.5 44.6929C397.727 3.26384 445.591 11.8143 490 9.17024Z" fill="#EBF5B3"/>
<path d="M332.961 3.17752C353.007 3.82835 373.503 4.60436 394 5.46252C324.865 14.9622 301.173 20.8441 291 44.6929C282.238 65.2334 254.9 80.34 270.583 44.6929C282.074 18.5723 303.441 9.37473 332.961 3.17752Z" fill="#EBF5B3"/>
<path d="M717.141 361.5C703.372 405.79 624.514 472.819 550.037 482.447C550.037 384.935 546.907 252.65 546.907 199.374C538.145 168.563 500.594 175.609 500.594 110.151C500.594 44.6929 579.452 11.5598 677.086 17.7189C721.522 19.0027 754.909 115.532 717.141 151.232C732.787 211.57 730.909 317.21 717.141 361.5Z" fill="#EBF5B3"/>
<path d="M550.037 482.447C475.56 492.075 124.803 502.459 86.0001 475.5C47.1969 448.541 27.5705 375.75 29 166C16 153.268 0.500006 131.5 0.5 97C0.49999 39.7353 41.5 10.0309 138.848 2.31357C231.223 -5.00947 677.086 17.7189 677.086 17.7189M550.037 482.447C624.514 472.819 703.372 405.79 717.141 361.5C730.909 317.21 732.787 211.57 717.141 151.232C754.909 115.532 721.522 19.0027 677.086 17.7189M550.037 482.447C550.037 384.935 546.907 252.65 546.907 199.374C538.145 168.563 500.594 175.609 500.594 110.151C500.594 44.6929 579.452 11.5598 677.086 17.7189M220 0.987173C238.539 0.926976 252.539 1.45387 274 1.88741C216.699 11.6141 198.186 23.5916 188.917 45.3201C180.155 65.8606 156.962 73.9064 172.645 38.2593C181.894 17.2352 197.427 8.13229 220 0.987173ZM490 9.17024C510.529 10.2367 530.316 10.6346 548.772 11.6852L547.879 11.7568C445.238 19.973 408.094 22.8687 395.772 51.7537C387.01 72.2942 363.817 80.34 379.5 44.6929C397.727 3.26384 445.591 11.8143 490 9.17024ZM332.961 3.17752C353.007 3.82835 373.503 4.60436 394 5.46252C324.865 14.9622 301.173 20.8441 291 44.6929C282.238 65.2334 254.9 80.34 270.583 44.6929C282.074 18.5723 303.441 9.37473 332.961 3.17752Z" stroke="black"/>
</svg>
